<svg aria-hidden="true" style="position: absolute; width: 0; height: 0; overflow: hidden;" version="1.1" xmlns="http://www.w3.org/2000/svg" xmlns:xlink="http://www.w3.org/1999/xlink">
<defs>
<symbol id="icon-star" viewBox="0 0 35 32">
<path d="M15.672 1.376c0.48-1.472 2.563-1.472 3.043 0l2.8 8.598c0.215 0.646 0.815 1.104 1.521 1.104 0.001 0 0.001 0 0.002 0h9.056c1.552 0 2.195 1.986 0.939 2.896l-7.32 5.304c-0.403 0.294-0.661 0.765-0.661 1.296 0 0.177 0.029 0.348 0.082 0.508l-0.003-0.011 2.798 8.586c0.48 1.472-1.205 2.701-2.461 1.792l-7.336-5.317c-0.26-0.19-0.586-0.305-0.939-0.305s-0.679 0.114-0.944 0.308l0.005-0.003-7.336 5.315c-1.254 0.91-2.941-0.317-2.461-1.792l2.798-8.586c0.050-0.148 0.079-0.319 0.079-0.496 0-0.531-0.259-1.002-0.657-1.293l-0.005-0.003-7.32-5.301c-1.256-0.91-0.613-2.896 0.939-2.896h9.056c0 0 0 0 0 0 0.706 0 1.306-0.458 1.518-1.093l0.003-0.011 2.802-8.6z"></path>
</symbol>
<symbol id="icon-menu" viewBox="0 0 53 32">
<path d="M0 0h52.8v6.139h-52.8zM0 12.278h52.8v6.139h-52.8zM0 24.56h52.8v6.139h-52.8z"></path>
</symbol>
<symbol id="icon-linkedin" viewBox="0 0 32 32">
<path d="M26.985 0.502h-22.166c-2.531 0-4.591 2.054-4.591 4.579v22.106c0 2.525 2.061 4.58 4.592 4.58h22.165c2.532 0 4.592-2.055 4.592-4.58v-22.106c0-2.526-2.061-4.58-4.592-4.58zM29.741 27.187c-0.004 1.519-1.236 2.748-2.755 2.748 0 0 0 0 0 0h-22.166c0 0 0 0 0 0-1.519 0-2.751-1.229-2.755-2.747v-22.107c0.004-1.519 1.236-2.748 2.755-2.748 0 0 0 0 0 0h22.166c0 0 0 0 0 0 1.519 0 2.751 1.229 2.755 2.747v22.107z"></path>
<path d="M24.523 23.164h-3.365v-5.621c0-0.388-0.028-0.771-0.126-1.149-0.402-1.56-2.139-1.469-2.831-0.73-0.347 0.372-0.574 0.791-0.584 1.31-0.002 0.123-0.009 0.247-0.009 0.371v5.817h-3.359v-10.43h3.358v1.399l0.027 0.012c0.023-0.032 0.048-0.064 0.072-0.098 0.337-0.467 0.724-0.882 1.237-1.161 0.574-0.314 1.194-0.418 1.839-0.4 0.699 0.020 1.361 0.177 1.959 0.553 0.765 0.482 1.232 1.186 1.506 2.032 0.213 0.659 0.283 1.339 0.283 2.028 0.002 1.982 0 3.963 0 5.944 0 0.039-0.003 0.078-0.005 0.123z"></path>
<path d="M24.523 23.164v0.023h0.023l0.001-0.023-0.023-0.001zM21.157 23.164h-0.023v0.023h0.023v-0.023zM21.157 17.543h0.001zM21.032 16.394v0zM18.201 15.664l0.018 0.016-0.018-0.016zM17.617 16.975v0zM17.608 17.346v0zM17.608 23.163v0.024h0.023v-0.023h-0.023zM14.249 23.163h-0.023v0.024h0.023v-0.023zM14.249 12.731v-0.023h-0.023v0.023h0.023zM17.606 12.731h0.023v-0.023h-0.023v0.023zM17.606 14.131h-0.024v0.016l0.014 0.006 0.009-0.022zM17.633 14.142l-0.009 0.022 0.017 0.008 0.012-0.016-0.020-0.014zM17.705 14.045v0zM18.942 12.883v0zM20.78 12.484l0.001-0.023v0.023zM22.739 13.037v0zM24.245 15.070v0zM24.528 17.097v0zM24.528 23.042v0zM24.523 23.14h-3.365v0.048h3.365v-0.047zM21.182 23.163v-0.155h-0.048v0.155h0.048zM21.182 23.009v-5.466h-0.047c-0.002 1.822-0.001 3.644-0.001 5.466h0.048zM21.182 17.543c0-0.389-0.029-0.774-0.126-1.155l-0.047 0.012c0.097 0.376 0.126 0.757 0.126 1.143h0.048zM21.055 16.388c-0.204-0.79-0.747-1.163-1.327-1.245-0.578-0.080-1.193 0.13-1.545 0.505l0.035 0.033c0.34-0.364 0.939-0.569 1.502-0.49 0.562 0.078 1.089 0.439 1.288 1.21l0.046-0.012zM18.184 15.648c-0.35 0.375-0.581 0.8-0.59 1.327h0.047c0.010-0.511 0.234-0.926 0.578-1.294l-0.034-0.033zM17.594 16.975c-0.002 0.121-0.009 0.247-0.009 0.371h0.047c0-0.124 0.008-0.245 0.010-0.37l-0.048-0.002zM17.584 17.346l-0.001 5.657h0.048v-5.657h-0.047zM17.584 23.003v0.161h0.048v-0.161h-0.048zM17.607 23.139h-3.358v0.048h3.358v-0.048zM14.272 23.163v-10.43h-0.047v10.43h0.047zM14.249 12.755h3.358v-0.048h-3.358v0.048zM17.581 12.732v1.398h0.048v-1.399h-0.048zM17.597 14.153l0.027 0.012 0.019-0.044-0.027-0.012-0.020 0.044zM17.651 14.157l0.073-0.098-0.039-0.028-0.072 0.097 0.039 0.029zM17.724 14.059c0.336-0.466 0.72-0.877 1.229-1.155l-0.023-0.041c-0.517 0.283-0.907 0.7-1.244 1.169l0.039 0.027zM18.953 12.904c0.57-0.31 1.185-0.414 1.826-0.396l0.002-0.047c-0.648-0.020-1.272 0.086-1.851 0.402l0.023 0.042zM20.78 12.507c0.695 0.020 1.354 0.177 1.947 0.55l0.026-0.041c-0.601-0.379-1.269-0.537-1.971-0.557l-0.002 0.048zM22.726 13.058c0.76 0.478 1.224 1.179 1.496 2.019l0.045-0.014c-0.275-0.851-0.744-1.561-1.516-2.046l-0.026 0.041zM24.222 15.077c0.212 0.656 0.281 1.334 0.282 2.021h0.048c-0.001-0.69-0.071-1.373-0.285-2.035l-0.045 0.014zM24.504 17.097c0.002 1.982 0.001 3.963 0.001 5.944h0.048c0-1.981 0.002-3.963 0-5.944h-0.048zM24.505 23.042c0 0.038-0.004 0.075-0.006 0.121l0.048 0.002c0.002-0.043 0.006-0.084 0.006-0.123h-0.048z"></path>
<path d="M12.183 23.157h-3.317v-10.416h3.317v10.416zM10.669 7.549c0.523-0.001 0.968 0.184 1.284 0.502s0.502 0.766 0.503 1.295c0.002 0.523-0.186 0.968-0.506 1.283s-0.773 0.499-1.307 0.499c-1.040 0.002-1.78-0.741-1.783-1.787s0.749-1.791 1.808-1.792z"></path>
</symbol>
<symbol id="icon-instagram" viewBox="0 0 31 32">
<path d="M9.495 1.009h0.39v-0.008h12.414c4.656 0 8.466 3.891 8.466 8.673v13.093c0 4.783-3.811 8.673-8.459 8.673h-12.811c-4.656-0.001-8.473-3.884-8.473-8.659v-13.099c0-4.782 3.817-8.673 8.473-8.673zM2.59 9.688v13.101c0 3.892 3.066 7.038 6.906 7.038h12.811c3.828 0 6.892-3.147 6.892-7.052v-13.092c0-3.906-3.065-7.053-6.899-7.053h-12.804c-3.835 0-6.898 3.147-6.906 7.059zM24.509 6.621c0-0.46 0.354-0.81 0.784-0.81s0.784 0.35 0.784 0.81-0.354 0.81-0.784 0.81-0.784-0.35-0.784-0.81zM8.074 16.224c0-4.414 3.532-8.012 7.828-8.012s7.827 3.598 7.827 8.012-3.532 8.012-7.828 8.012c-4.296 0-7.828-3.598-7.828-8.012zM22.162 16.224c0-3.539-2.779-6.392-6.259-6.392s-6.26 2.853-6.26 6.392 2.779 6.392 6.26 6.392c3.482 0 6.26-2.853 6.26-6.392z"></path>
</symbol>
<symbol id="icon-figma" viewBox="0 0 21 32">
<path fill="#0acf83" style="fill: var(--color3, #0acf83)" d="M5.41 31.997c2.89 0 5.234-2.387 5.234-5.331v-5.33h-5.234c-2.891 0-5.235 2.387-5.235 5.33s2.345 5.331 5.235 5.331z"></path>
<path fill="#a259ff" style="fill: var(--color4, #a259ff)" d="M0.175 15.999c0-2.943 2.344-5.331 5.235-5.331h5.234v10.668h-5.234c-2.891-0.007-5.235-2.394-5.235-5.338z"></path>
<path fill="#f24e1e" style="fill: var(--color5, #f24e1e)" d="M0.175 5.331c0-2.943 2.344-5.331 5.235-5.331h5.234v10.668h-5.234c-2.891 0-5.235-2.394-5.235-5.337z"></path>
<path fill="#ff7262" style="fill: var(--color6, #ff7262)" d="M10.651 0h5.234c2.89 0 5.234 2.387 5.234 5.331s-2.344 5.33-5.234 5.33h-5.235v-10.661z"></path>
<path fill="#1abcfe" style="fill: var(--color7, #1abcfe)" d="M21.12 15.999c0 2.943-2.344 5.33-5.235 5.33s-5.234-2.387-5.234-5.33c0-2.943 2.344-5.331 5.235-5.331s5.234 2.387 5.234 5.331z"></path>
</symbol>
<symbol id="icon-dribble" viewBox="0 0 31 32">
<path d="M23.933 6.167l0.238-0.3-0.295-0.244c-2.237-1.867-5.142-3.001-8.313-3.001-0.006 0-0.011 0-0.017 0h0.001c-1.139 0.006-2.24 0.155-3.29 0.43l0.092-0.020-0.567 0.141 0.349 0.47c1.085 1.46 2.644 3.665 4.511 7.12l0.162 0.298 0.318-0.119c3.533-1.311 5.651-3.319 6.81-4.775zM10.43 4.015l-0.192-0.252-0.286 0.135c-3.509 1.655-6.168 4.817-7.217 8.678l-0.13 0.476 0.494 0.016c1.932 0.062 6.551-0.030 11.67-1.401l0.483-0.129-0.243-0.437c-1.986-3.578-3.655-5.868-4.58-7.086zM25.613 7.34l-0.303-0.361-0.297 0.364c-1.293 1.577-3.537 3.627-7.090 5.017l-0.395 0.155 0.187 0.381c0.661 1.283 1.396 2.936 2.053 4.628l0.133 0.388 0.112 0.296 0.312-0.048c1.348-0.215 2.901-0.337 4.484-0.337 0.794 0 1.582 0.031 2.361 0.092l-0.103-0.006c0.437 0.036 0.718 0.077 1.046 0.125l0.614 0.087 0.043-0.401c0.053-0.454 0.083-0.98 0.083-1.513 0-3.388-1.225-6.489-3.256-8.886l0.017 0.020zM16.133 13.292l-0.144-0.289-0.311 0.088c-6.020 1.709-11.323 1.658-12.975 1.591l-0.376-0.016-0.029 0.375-0.002 0.027c-0.029 0.371-0.058 0.753-0.058 1.159 0 4.085 1.767 7.732 4.554 10.226l0.291 0.261 0.26-0.291c0.892-1 1.798-1.918 2.747-2.791l0.028-0.026 0.002-0.001c2.143-1.976 4.901-4.066 7.905-4.979l0.404-0.123-0.153-0.393c-0.787-2.015-1.507-3.603-2.295-5.15l0.152 0.33zM23.54 19.455h-0.005c-0.938 0.047-1.794 0.129-2.639 0.246l0.156-0.018-0.464 0.062 0.145 0.445c0.721 2.22 1.317 4.571 1.702 7.017l0.098 0.617 0.511-0.357c2.495-1.759 4.346-4.284 5.22-7.23l0.024-0.096 0.129-0.445-0.46-0.052c-1.14-0.129-2.583-0.258-4.416-0.19zM19.125 20.38l-0.12-0.354-0.359 0.104c-2.639 0.768-5.399 2.759-7.491 4.68-1.011 0.919-1.827 1.793-2.483 2.508l-0.322 0.352 0.409 0.246c1.986 1.198 4.293 1.903 6.782 1.903 1.868 0 3.631-0.395 5.24-1.090l0.272-0.117-0.040-0.293c-0.378-2.789-1.045-5.448-1.889-7.938zM0.677 16.22c0-8.393 6.686-15.219 14.871-15.219s14.871 6.826 14.871 15.22c0 8.392-6.686 15.218-14.871 15.218s-14.871-6.826-14.871-15.219z"></path>
</symbol>
<symbol id="icon-close" viewBox="0 0 32 32">
<path fill="#828282" style="fill: var(--color8, #828282)" d="M3.738 0l26.929 26.929-3.738 3.738-26.929-26.929z"></path>
<path fill="#828282" style="fill: var(--color8, #828282)" d="M1.156 27.21l26.929-26.929 3.738 3.738-26.929 26.929z"></path>
</symbol>
<symbol id="icon-behance" viewBox="0 0 33 32">
<path d="M27.456 0h-22.688c-2.592 0-4.7 2.102-4.7 4.688v22.624c0 2.586 2.108 4.688 4.7 4.688h22.688c2.592 0 4.701-2.103 4.701-4.688v-22.624c0-2.586-2.109-4.688-4.701-4.688zM30.277 27.312c-0.004 1.554-1.265 2.813-2.82 2.813-0 0-0.001 0-0.001 0h-22.688c0 0 0 0 0 0-1.555 0-2.815-1.258-2.82-2.812v-22.626c0.005-1.554 1.265-2.812 2.82-2.812 0 0 0 0 0 0h22.688c0 0 0.001 0 0.001 0 1.555 0 2.815 1.258 2.82 2.812v22.626z"></path>
<path d="M15.172 13.187c0-2.068-1.686-3.75-3.76-3.75h-5.641v13.125h5.64c2.074 0 3.761-1.682 3.761-3.75 0-0 0-0.001 0-0.001 0-1.119-0.492-2.123-1.272-2.808l-0.004-0.004c0.784-0.688 1.277-1.693 1.277-2.812 0-0 0-0 0-0v0zM13.292 18.813c-0.003 1.036-0.844 1.874-1.88 1.874 0 0 0 0 0 0h-3.76v-3.75h3.76c0 0 0 0 0 0 1.037 0 1.877 0.839 1.88 1.875v0zM7.652 15.062v-3.75h3.76c0 0 0 0 0 0 1.036 0 1.877 0.838 1.88 1.874v0c-0.003 1.036-0.843 1.875-1.88 1.875 0 0 0 0 0 0h-3.76zM21.753 13.187c-2.592 0-4.701 2.103-4.701 4.688s2.109 4.688 4.701 4.688c1.729-0.003 3.239-0.934 4.059-2.322l0.012-0.022-1.628-0.938c-0.498 0.847-1.405 1.407-2.443 1.407-1.219 0-2.258-0.773-2.653-1.855l-0.006-0.020h7.36v-0.938c0-2.585-2.109-4.688-4.701-4.688zM19.094 16.938c0.402-1.101 1.44-1.873 2.659-1.873s2.257 0.772 2.653 1.854l0.006 0.020h-5.318zM17.992 9.438h7.522v1.875h-7.522v-1.875z"></path>
</symbol>
<symbol id="icon-adobe-photoshop" viewBox="0 0 32 32">
<path fill="#000" style="fill: var(--color9, #000)" d="M1.335 1.359h29.363v29.071h-29.363v-29.071z"></path>
<path fill="#31c5f0" style="fill: var(--color10, #31c5f0)" d="M1.335 1.359h29.363v29.071h-29.363v-29.071zM0 31.789h32.026v-31.789h-32.026v31.789zM21.597 13.046c-1.052 0-1.412 0.542-1.412 0.993 0 0.49 0.237 0.83 1.656 1.575 2.092 1.032 2.747 2.025 2.747 3.475 0 2.175-1.63 3.345-3.832 3.345-1.161 0-2.163-0.242-2.734-0.581-0.096-0.039-0.109-0.111-0.109-0.216v-2.005c0-0.137 0.064-0.176 0.161-0.111 0.756 0.502 1.684 0.802 2.682 0.804h0.001c1.053 0 1.496-0.451 1.496-1.059 0-0.49-0.308-0.921-1.656-1.633-1.893-0.921-2.683-1.855-2.683-3.423 0-1.751 1.348-3.208 3.684-3.208 1.149 0 1.951 0.176 2.387 0.379 0.109 0.065 0.135 0.177 0.135 0.274v1.862c0 0.111-0.064 0.176-0.199 0.137-0.59-0.379-1.457-0.608-2.323-0.608zM10.121 14.66c0.308 0.026 0.545 0.026 1.078 0.026 1.559 0 3.029-0.555 3.029-2.717 0-1.725-1.052-2.594-2.83-2.594-0.457 0.002-0.905 0.016-1.35 0.043l0.067-0.003 0.006 5.246zM7.74 7.447c0-0.098 0.186-0.163 0.295-0.163 0.854-0.039 2.125-0.065 3.44-0.065 3.697 0 5.141 2.065 5.141 4.697 0 3.45-2.458 4.932-5.475 4.932-0.507 0-0.68-0.026-1.040-0.026v5.213c0 0.111-0.038 0.163-0.16 0.163h-2.041c-0.109 0-0.161-0.039-0.161-0.163v-14.588z"></path>
</symbol>
<symbol id="icon-adobe-illustrator" viewBox="0 0 32 32">
<path fill="#000" style="fill: var(--color9, #000)" d="M1.511 1.36h29.397v29.125h-29.396v-29.125z"></path>
<path fill="#ff7f18" style="fill: var(--color11, #ff7f18)" d="M1.511 1.361h29.397v29.125h-29.396v-29.125zM0.175 31.846h32.075v-31.846h-32.076v31.846zM21.184 11.355c0-0.111 0.039-0.164 0.161-0.164h2.101c0.109 0 0.16 0.040 0.16 0.164v10.74c0 0.111-0.026 0.163-0.16 0.163h-2.075c-0.135 0-0.174-0.065-0.174-0.176v-10.727h-0.013zM21.036 8.261c0-0.87 0.604-1.386 1.362-1.386 0.816 0 1.362 0.556 1.362 1.386 0 0.896-0.572 1.387-1.387 1.387-0.771 0.006-1.336-0.484-1.336-1.387zM15.025 15.828c-0.373-1.511-1.259-4.801-1.593-6.396h-0.026c-0.283 1.589-0.989 4.284-1.548 6.396h3.167zM11.312 18.032l-1.053 4.082c-0.026 0.111-0.064 0.137-0.199 0.137h-1.966c-0.135 0-0.16-0.040-0.135-0.203l3.796-13.526c0.064-0.242 0.109-0.465 0.135-1.131 0-0.098 0.039-0.137 0.109-0.137h2.807c0.096 0 0.135 0.026 0.161 0.137l4.252 14.684c0.026 0.111 0 0.177-0.109 0.177h-2.216c-0.109 0-0.173-0.026-0.199-0.124l-1.098-4.094h-4.284z"></path>
</symbol>
<symbol id="icon-adobe-effects" viewBox="0 0 32 32">
<path fill="#000" style="fill: var(--color9, #000)" d="M1.511 1.36h29.397v29.125h-29.396v-29.125z"></path>
<path fill="#d8a1ff" style="fill: var(--color12, #d8a1ff)" d="M1.511 1.361h29.397v29.125h-29.396v-29.125zM0.175 31.846h32.075v-31.846h-32.076v31.846zM22.867 15.351c0.681 0 0.925 0 0.989-0.026 0-0.098 0.026-0.164 0.026-0.229 0-0.732-0.347-2.093-1.734-2.093-1.284 0-1.83 1.144-1.965 2.355h2.685v-0.007zM20.156 17.215c0.026 1.838 0.88 3.074 2.916 3.074 0.79 0 1.471-0.111 2.177-0.419 0.096-0.039 0.161-0.026 0.161 0.098v1.701c0 0.137-0.038 0.203-0.135 0.275-0.707 0.353-1.593 0.517-2.685 0.517-3.526 0-4.849-2.655-4.849-5.605 0-3.211 1.631-5.841 4.502-5.841 2.916 0 3.931 2.492 3.931 4.52 0 0.654-0.039 1.184-0.109 1.445-0.026 0.111-0.064 0.15-0.173 0.177-0.27 0.040-1.053 0.098-2.229 0.098h-3.501v-0.040h-0.006zM12.988 15.829c-0.373-1.511-1.285-4.801-1.618-6.396h-0.026c-0.283 1.589-1.015 4.284-1.56 6.396h3.205zM9.238 18.033l-1.053 4.069c-0.026 0.111-0.064 0.15-0.199 0.15h-1.972c-0.135 0-0.161-0.040-0.135-0.203l3.796-13.513c0.064-0.242 0.109-0.438 0.135-1.118 0-0.098 0.038-0.137 0.109-0.137h2.807c0.096 0 0.135 0.026 0.16 0.137l4.246 14.657c0.026 0.111 0 0.177-0.109 0.177h-2.203c-0.109 0-0.173-0.040-0.199-0.137l-1.098-4.081h-4.284z"></path>
</symbol>
</defs>
</svg>
